<svg xmlns="http://www.w3.org/2000/svg" xmlns:xlink="http://www.w3.org/1999/xlink" xmlns:lucid="lucid" width="1520.4" height="765"><g transform="translate(-175 -241.5907819727861)" lucid:page-tab-id="0_0"><path d="M245 826.6h40v160h-40zM195 274.1h150v525H195z" stroke="#000" stroke-width="2" fill="#fff"/><use xlink:href="#a" transform="matrix(1,0,0,1,200,279.0907819727861) translate(55 261.09999999999997)"/><path d="M225 319.1h100v100H225z" stroke="#000" stroke-width="2" fill="#fff"/><path d="M265 359.1h20v20h-20zM225 439.1h100v100H225z" stroke="#000" stroke-width="2" fill="#fff"/><path d="M285 499.1h20v20h-20zM225 559.1h100v100H225z" stroke="#000" stroke-width="2" fill="#fff"/><path d="M305 639.1h20v20h-20zM225 679.1h100v100H225z" stroke="#000" stroke-width="2" fill="#fff"/><path d="M285 739.1h20v20h-20zM536.27 826.6v160l-120-80zM245 826.6h40v40h-40z" stroke="#000" stroke-width="2" fill="#fff"/><use xlink:href="#b" transform="matrix(1,0,0,1,250,831.5907819727861) translate(3 18.6)"/><path d="M245 866.6h40v40h-40z" stroke="#000" stroke-width="2" fill="#fff"/><use xlink:href="#c" transform="matrix(1,0,0,1,250,871.5907819727861) translate(3 18.6)"/><path d="M245 906.6h40v40h-40z" stroke="#000" stroke-width="2" fill="#fff"/><use xlink:href="#d" transform="matrix(1,0,0,1,250,911.5907819727861) translate(3 18.6)"/><path d="M245 946.6h40v40h-40z" stroke="#000" stroke-width="2" fill="#fff"/><use xlink:href="#e" transform="matrix(1,0,0,1,250,951.5907819727861) translate(3 18.6)"/><path d="M346 536.6l64.77 1.24M346 536.6l-3-.07" stroke="#000" stroke-width="2" fill="none"/><path d="M425.76 538.13l-14.35 4.36.2-9.28z" stroke="#000" stroke-width="2"/><path d="M286 906.6h110.23M286 906.6h-3" stroke="#000" stroke-width="2" fill="none"/><path d="M411.23 906.6l-14.26 4.63v-9.27z" stroke="#000" stroke-width="2"/><path d="M430 288.2l130 160v160l-130 180z" stroke="#000" stroke-width="2" fill="#fff"/><use xlink:href="#f" transform="matrix(1,0,0,1,429.99922750772487,288.190781972786) translate(45.575 253.6)"/><path d="M625 466.6h44.8v160H625zM616.27 826.6h44.8v160h-44.8zM785 716.6c0 16.56-13.43 30-30 30s-30-13.44-30-30c0-16.58 13.43-30 30-30s30 13.42 30 30z" stroke="#000" stroke-width="2" fill="#fff"/><use xlink:href="#g" transform="matrix(1,0,0,1,730,691.5907819727861) translate(19.814814814814813 28.555555555555557)"/><path d="M561 538.2l44.78 1.7M561 538.2l-3-.12" stroke="#000" stroke-width="2" fill="none"/><path d="M620.77 540.47l-14.44 4.1.36-9.28z" stroke="#000" stroke-width="2"/><path d="M537.27 906.6h59.77M537.27 906.6h-3" stroke="#000" stroke-width="2" fill="none"/><path d="M612.04 906.6l-14.27 4.63v-9.27z" stroke="#000" stroke-width="2"/><path d="M662.08 906.6l2.76-.07 2.48-.15 2.25-.24 2.05-.3 1.9-.36 1.73-.4 1.62-.46 1.52-.5 1.4-.52 1.36-.57 1.28-.6 1.2-.63 1.17-.68 1.13-.7 1.08-.75 1.05-.8 1-.83 1-.9.96-.93.95-1 .93-1.07.9-1.15.92-1.25.9-1.35.88-1.47.9-1.6.88-1.8.9-2 .88-2.26.9-2.58.9-3 .93-3.6.93-4.4.96-5.73 1.03-8.27 5.06-59.3 1.32-7.87 1.36-6.4 1.4-5.45 1.43-4.75 1.47-4.23 1.5-3.82 1.56-3.48 1.58-3.2.76-1.38M662.08 906.6l-2.98.4" stroke="#000" stroke-width="2" fill="none"/><path d="M731.84 741.63l-4.53 14.3-7.53-5.4z" stroke="#000" stroke-width="2"/><path d="M670.8 546.6l2.35.04 2.1.13 1.9.2 1.74.26 1.58.3 1.46.34 1.37.38 1.28.42 1.2.44 1.12.48 1.06.5 1 .53.98.57.93.6.9.6.85.66.83.7.8.72.8.77.77.83.76.87.75.94.73 1 .73 1.1.7 1.2.72 1.3.7 1.42.7 1.58.7 1.78.7 2 .7 2.32.7 2.7.7 3.25.67 4.04.65 5.3.65 7.96 2.38 49 .9 7.13.96 5.73 1.02 4.82 1.07 4.18 1.12 3.7 1.15 3.32 1.2 3 1.22 2.77 1.26 2.55.77 1.4M670.8 546.6l-2.96-.5" stroke="#000" stroke-width="2" fill="none"/><path d="M729.28 694.2l-12.4-8.46 7.33-5.67z" stroke="#000" stroke-width="2"/><path d="M845 636.6h44.8v160H845z" stroke="#000" stroke-width="2" fill="#fff"/><path d="M786 716.6h39.76M786 716.6h-3" stroke="#000" stroke-width="2" fill="none"/><path d="M840.76 716.6l-14.26 4.63v-9.27z" stroke="#000" stroke-width="2"/><path d="M1053.9 386.6h160v250h-160z" stroke="#000" stroke-width="2" fill="#fff"/><use xlink:href="#h" transform="matrix(1,0,0,1,1058.9149123852878,391.5907819727861) translate(51.05 123.60000000000001)"/><path d="M890.8 716.6l2.74-.1 2.57-.22 2.42-.3 2.3-.37 2.17-.45 2.07-.52 2-.6 1.95-.67 1.9-.74 1.84-.8 1.8-.9 1.8-.98 1.77-1.06 1.77-1.17 1.77-1.27 1.8-1.4 1.8-1.56 1.87-1.73 1.92-1.95 2-2.2 2.1-2.55 2.28-2.97 2.5-3.57 2.86-4.48 3.55-6.1 5.6-10.67 16.44-32.68 4.28-7.38 3.64-5.7 3.3-4.72 3.1-4.05 2.97-3.57 2.88-3.18 2.83-2.88 2.83-2.63 2.8-2.4 2.84-2.23 2.86-2.07 2.9-1.9 3-1.8 3.04-1.66 3.16-1.54 3.27-1.45 3.4-1.32 3.58-1.23 3.76-1.12 3.98-1 3.98-.83M890.8 716.6l-2.97.42" stroke="#000" stroke-width="2" fill="none"/><path d="M1049.7 578.27l-13.68 6.16-1-9.22z" stroke="#000" stroke-width="2"/><path d="M845 520V360l120 32v96zM585 351.8h160v74.8H585z" stroke="#000" stroke-width="2" fill="#fff"/><use xlink:href="#i" transform="matrix(1,0,0,1,590,356.7907819727861) translate(32.075 36.1)"/><use xlink:href="#j" transform="matrix(1,0,0,1,590,356.7907819727861) translate(78.92500000000001 36.1)"/><path d="M746 389.2l2.06.04 1.96.15 1.88.23 1.8.33 1.76.4 1.72.5 1.7.6 1.67.66 1.68.78 1.68.9 1.72 1 1.74 1.16 1.8 1.33 1.86 1.53 1.98 1.8 2.1 2.15 2.33 2.6 2.6 3.25 3.13 4.3 4.23 6.55 19.44 32.77 3.12 4.3 2.6 3.27 2.33 2.6 2.1 2.14 1.98 1.8 1.87 1.54 1.8 1.33 1.73 1.16 1.7 1 .42.22M746 389.2l-2.94-.6" stroke="#000" stroke-width="2" fill="none"/><path d="M840.86 475.2l-14.96 1.05 2.25-9z" stroke="#000" stroke-width="2"/><path d="M1138.54 282.43l20.27 3.97 16.78 4.02 13.85 3.94 11.46 3.8 9.52 3.6 7.98 3.4 6.72 3.2 5.72 3.02 4.88 2.85 4.2 2.7 3.64 2.56 3.17 2.42 2.77 2.32 2.44 2.2 2.15 2.14 1.9 2.05 1.7 2 1.5 1.9 1.33 1.88 1.2 1.83 1.07 1.8.95 1.74.85 1.73.75 1.7.66 1.7.58 1.7.5 1.67.42 1.68.35 1.68.28 1.7.2 1.72.14 1.74.07 1.75v1.8l-.1 1.85-.17 1.9-.26 1.95-.34 2.02-.46 2.1-.58 2.18-.7 2.28-.85 2.4-1.03 2.55-1.2 2.7-1.46 2.87-1.72 3.08-2.04 3.32-2.43 3.6-2.9 3.95-3.5 4.34-4.2 4.8-5.12 5.4-6.3 6.08-7.8 6.95-9.82 8.02-1.27-1.56 9.78-8 7.75-6.88 6.23-6.03 5.06-5.32 4.15-4.74 3.43-4.28 2.85-3.87 2.4-3.53 1.98-3.25 1.68-3 1.42-2.8 1.18-2.63 1-2.47.82-2.32.68-2.2.55-2.1.44-2.02.33-1.94.25-1.86.16-1.82.1-1.76v-1.7l-.06-1.7-.13-1.65-.2-1.64-.27-1.6-.33-1.6-.4-1.6-.47-1.6-.55-1.6-.63-1.63-.72-1.63-.8-1.65-.92-1.7-1.02-1.7-1.15-1.76-1.3-1.8-1.46-1.86-1.64-1.9-1.85-2-2.1-2.07-2.37-2.16-2.7-2.26-3.1-2.38-3.58-2.5-4.13-2.66-4.8-2.8-5.64-3-6.66-3.17-7.9-3.37-9.45-3.56-11.38-3.77-13.76-3.9-16.7-4-20.18-3.97-5.14-.8v-2zm-97.38-9.36v2l-21.44-.56-33.94.52-31.5 1.8-27.47 2.7-22.9 3.25-18.62 3.43-14.94 3.4-11.96 3.26-9.6 3.05-7.77 2.85-6.32 2.6-5.2 2.42-4.34 2.23-3.6 2.06-3.06 1.9-2.6 1.8-2.22 1.65-1.9 1.57-1.66 1.47-1.43 1.4-1.25 1.3-1.1 1.27-.97 1.2-.85 1.16-.75 1.12-.66 1.08-.6 1.04-.5 1.02-.46 1-.4.98-.33.96-.3.96-.24.94-.2.94-.17.94-.13.95-.08.93-.06.96v.96l.03.98.08 1 .12 1.04.18 1.06.22 1.1.3 1.12.33 1.18.43 1.23.5 1.3.6 1.35.7 1.44.83 1.53.98 1.63 1.16 1.76 1.37 1.9 1.63 2.07 1.94 2.27 2.32 2.5 2.82 2.8 3.43 3.1 4.24 3.55 5.27 4.03.3.2-1.14 1.64-.33-.23-5.34-4.1-4.3-3.58-3.5-3.18-2.87-2.84-2.4-2.57-1.98-2.33-1.68-2.14-1.42-1.97-1.2-1.84-1.02-1.72-.88-1.6-.74-1.52-.62-1.44-.53-1.36-.45-1.3-.37-1.27-.3-1.22-.25-1.18-.2-1.14-.12-1.1-.1-1.1-.03-1.07v-1.06l.06-1.04.08-1.03.14-1.03.18-1.02.22-1.03.27-1.03.3-1.04.38-1.04.42-1.07.5-1.07.54-1.1.62-1.1.7-1.16.8-1.2.9-1.2 1.02-1.28 1.16-1.32 1.3-1.38 1.5-1.45 1.72-1.52 1.97-1.62 2.3-1.7 2.65-1.83 3.12-1.96 3.7-2.1 4.4-2.26 5.27-2.45 6.4-2.65 7.86-2.86 9.7-3.08 12.02-3.28 15.02-3.42 18.7-3.45 23-3.26 27.56-2.72 31.58-1.8 34.04-.52zM1215.56 436.7l-2.3 1.9-1.3-1.54 2.33-1.9z"/><path d="M841.3 386.87l-14.43-4.05 5.14-7.72z"/><path d="M844 388.67l-18.73-5.26 6.67-10zm-15.54-6.44l10.15 2.85-6.52-8.28z"/><use xlink:href="#k" transform="matrix(1,0,0,1,1041.1556750950842,265.93089371617265) translate(0 14.4)"/><use xlink:href="#j" transform="matrix(1,0,0,1,1041.1556750950842,265.93089371617265) translate(52.900000000000006 14.4)"/><path d="M966 440l68.68 1.52M966 440l-3-.07" stroke="#000" stroke-width="2" fill="none"/><path d="M1049.68 441.85l-14.37 4.32.22-9.27z" stroke="#000" stroke-width="2"/><path d="M1525.4 286.6h150v500h-150z" stroke="#000" stroke-width="2" fill="#fff"/><path d="M1550.4 446.6h100v100h-100z" stroke="#000" stroke-width="2" fill="#fff"/><path d="M1570.4 466.6h20v20h-20zM1550.4 326.6h100v100h-100z" stroke="#000" stroke-width="2" fill="#fff"/><path d="M1601.58 371.8h20v20h-20zM1550.4 566.6h100v100h-100z" stroke="#000" stroke-width="2" fill="#fff"/><path d="M1550.4 582.4h20v20h-20zM1550.4 678.2h100v100h-100z" stroke="#000" stroke-width="2" fill="#fff"/><path d="M1570.9 686.6h20v20h-20zM1432.83 761.6l-130-160V441.58l130-180z" stroke="#000" stroke-width="2" fill="#fff"/><use xlink:href="#l" transform="matrix(-1,1.2246467991473532e-16,-1.2246467991473532e-16,-1,1432.8298247705757,761.5907819727861) translate(65 242.8)"/><use xlink:href="#m" transform="matrix(-1,1.2246467991473532e-16,-1.2246467991473532e-16,-1,1432.8298247705757,761.5907819727861) translate(65 264.4)"/><path d="M1214.92 511.6h68.67M1214.92 511.6h-3" stroke="#000" stroke-width="2" fill="none"/><path d="M1298.6 511.6l-14.27 4.63v-9.27z" stroke="#000" stroke-width="2"/><path d="M1433.83 511.6h72.33M1433.83 511.6h-3" stroke="#000" stroke-width="2" fill="none"/><path d="M1521.16 511.6l-14.26 4.63v-9.27z" stroke="#000" stroke-width="2"/><path d="M1247.83 481.6h240v60h-240z" stroke="#000" stroke-opacity="0" stroke-width="2" fill="#fff" fill-opacity="0"/><use xlink:href="#n" transform="matrix(1,0,0,1,1252.8298247705757,486.5907819727861) translate(90.1 28.6)"/><path d="M862.08 391.8h85.84v40h-85.84z" stroke="#000" stroke-opacity="0" stroke-width="2" fill="#fff" fill-opacity="0"/><use xlink:href="#o" transform="matrix(1,0,0,1,867.075629325847,396.790781972786) translate(22.025 14.4)"/><use xlink:href="#p" transform="matrix(1,0,0,1,867.075629325847,396.790781972786) translate(17.6 36)"/><use xlink:href="#q" transform="matrix(1,0,0,1,867.075629325847,396.790781972786) translate(6.5 57.6)"/><use xlink:href="#r" transform="matrix(1,0,0,1,867.075629325847,396.790781972786) translate(50.5 57.6)"/><use xlink:href="#s" transform="matrix(1,0,0,1,867.075629325847,396.790781972786) translate(1.5499999999999972 79.20000000000002)"/><use xlink:href="#j" transform="matrix(1,0,0,1,867.075629325847,396.790781972786) translate(35.449999999999996 79.20000000000002)"/><path d="M210 274.1h120v53.2H210z" stroke="#000" stroke-opacity="0" stroke-width="2" fill="#fff" fill-opacity="0"/><g><use xlink:href="#t" transform="matrix(1,0,0,1,214.99961375386243,279.0907819727861) translate(4.100000000000001 25.6)"/><use xlink:href="#u" transform="matrix(1,0,0,1,214.99961375386243,279.0907819727861) translate(60.95 25.6)"/><use xlink:href="#v" transform="matrix(1,0,0,1,214.99961375386243,279.0907819727861) translate(80.94999999999999 25.6)"/><use xlink:href="#w" transform="matrix(1,0,0,1,214.99961375386243,279.0907819727861) translate(91.9 25.6)"/></g><path d="M1540.4 278.6h120v53.2h-120z" stroke="#000" stroke-opacity="0" stroke-width="2" fill="#fff" fill-opacity="0"/><g><use xlink:href="#t" transform="matrix(1,0,0,1,1545.3996137538622,283.59078197278603) translate(4.100000000000001 25.6)"/><use xlink:href="#x" transform="matrix(1,0,0,1,1545.3996137538622,283.59078197278603) translate(60.95 25.6)"/><use xlink:href="#v" transform="matrix(1,0,0,1,1545.3996137538622,283.59078197278603) translate(80.94999999999999 25.6)"/><use xlink:href="#y" transform="matrix(1,0,0,1,1545.3996137538622,283.59078197278603) translate(91.9 25.6)"/></g><path d="M430 880h111.93v53.2H430z" stroke="#000" stroke-opacity="0" stroke-width="2" fill="#fff" fill-opacity="0"/><g><use xlink:href="#z" transform="matrix(1,0,0,1,434.99922750772487,884.9907819727861) translate(4.624999999999993 25.6)"/><use xlink:href="#A" transform="matrix(1,0,0,1,434.99922750772487,884.9907819727861) translate(31.524999999999995 25.6)"/></g><defs><path d="M101-234c-31-9-42 10-38 44h38v23H63V0H32v-167H5v-23h27c-7-52 17-82 69-68v24" id="B"/><path d="M100-194c63 0 86 42 84 106H49c0 40 14 67 53 68 26 1 43-12 49-29l28 8c-11 28-37 45-77 45C44 4 14-33 15-96c1-61 26-98 85-98zm52 81c6-60-76-77-97-28-3 7-6 17-6 28h103" id="C"/><g id="a"><use transform="matrix(0.05,0,0,0.05,0,0)" xlink:href="#B"/><use transform="matrix(0.05,0,0,0.05,5,0)" xlink:href="#C"/><use transform="matrix(0.05,0,0,0.05,15,0)" xlink:href="#B"/><use transform="matrix(0.05,0,0,0.05,20,0)" xlink:href="#C"/></g><path d="M101-251c68 0 85 55 85 127S166 4 100 4C33 4 14-52 14-124c0-73 17-127 87-127zm-1 229c47 0 54-49 54-102s-4-102-53-102c-51 0-55 48-55 102 0 53 5 102 54 102" id="D"/><path d="M141 0L90-78 38 0H4l68-98-65-92h35l48 74 47-74h35l-64 92 68 98h-35" id="E"/><g id="b"><use transform="matrix(0.05,0,0,0.05,0,0)" xlink:href="#B"/><use transform="matrix(0.05,0,0,0.05,5,0)" xlink:href="#D"/><use transform="matrix(0.05,0,0,0.05,15,0)" xlink:href="#E"/></g><path d="M179-190L93 31C79 59 56 82 12 73V49c39 6 53-20 64-50L1-190h34L92-34l54-156h33" id="F"/><g id="c"><use transform="matrix(0.05,0,0,0.05,0,0)" xlink:href="#B"/><use transform="matrix(0.05,0,0,0.05,5,0)" xlink:href="#D"/><use transform="matrix(0.05,0,0,0.05,15,0)" xlink:href="#F"/></g><path d="M155-56V0h-30v-56H8v-25l114-167h33v167h35v25h-35zm-30-156c-27 46-58 90-88 131h88v-131" id="G"/><g id="d"><use transform="matrix(0.05,0,0,0.05,0,0)" xlink:href="#B"/><use transform="matrix(0.05,0,0,0.05,5,0)" xlink:href="#G"/><use transform="matrix(0.05,0,0,0.05,15,0)" xlink:href="#E"/></g><g id="e"><use transform="matrix(0.05,0,0,0.05,0,0)" xlink:href="#B"/><use transform="matrix(0.05,0,0,0.05,5,0)" xlink:href="#G"/><use transform="matrix(0.05,0,0,0.05,15,0)" xlink:href="#F"/></g><path d="M212-179c-10-28-35-45-73-45-59 0-87 40-87 99 0 60 29 101 89 101 43 0 62-24 78-52l27 14C228-24 195 4 139 4 59 4 22-46 18-125c-6-104 99-153 187-111 19 9 31 26 39 46" id="H"/><path d="M190 0L58-211 59 0H30v-248h39L202-35l-2-213h31V0h-41" id="I"/><g id="f"><use transform="matrix(0.05,0,0,0.05,0,0)" xlink:href="#H"/><use transform="matrix(0.05,0,0,0.05,12.950000000000001,0)" xlink:href="#I"/><use transform="matrix(0.05,0,0,0.05,25.900000000000002,0)" xlink:href="#I"/></g><path d="M118-107v75H92v-75H18v-26h74v-75h26v75h74v26h-74" id="J"/><use transform="matrix(0.04938271604938272,0,0,0.04938271604938272,0,0)" xlink:href="#J" id="g"/><path d="M30 0v-248h33v221h125V0H30" id="K"/><path d="M185-189c-5-48-123-54-124 2 14 75 158 14 163 119 3 78-121 87-175 55-17-10-28-26-33-46l33-7c5 56 141 63 141-1 0-78-155-14-162-118-5-82 145-84 179-34 5 7 8 16 11 25" id="L"/><path d="M127-220V0H93v-220H8v-28h204v28h-85" id="M"/><path d="M240 0l2-218c-23 76-54 145-80 218h-23L58-218 59 0H30v-248h44l77 211c21-75 51-140 76-211h43V0h-30" id="N"/><g id="h"><use transform="matrix(0.05,0,0,0.05,0,0)" xlink:href="#K"/><use transform="matrix(0.05,0,0,0.05,10,0)" xlink:href="#L"/><use transform="matrix(0.05,0,0,0.05,22,0)" xlink:href="#M"/><use transform="matrix(0.05,0,0,0.05,32.95,0)" xlink:href="#N"/></g><path d="M33 0v-248h34V0H33" id="O"/><path d="M117-194c89-4 53 116 60 194h-32v-121c0-31-8-49-39-48C34-167 62-67 57 0H25l-1-190h30c1 10-1 24 2 32 11-22 29-35 61-36" id="P"/><path d="M24-231v-30h32v30H24zM24 0v-190h32V0H24" id="Q"/><path d="M59-47c-2 24 18 29 38 22v24C64 9 27 4 27-40v-127H5v-23h24l9-43h21v43h35v23H59v120" id="R"/><path d="M141-36C126-15 110 5 73 4 37 3 15-17 15-53c-1-64 63-63 125-63 3-35-9-54-41-54-24 1-41 7-42 31l-33-3c5-37 33-52 76-52 45 0 72 20 72 64v82c-1 20 7 32 28 27v20c-31 9-61-2-59-35zM48-53c0 20 12 33 32 33 41-3 63-29 60-74-43 2-92-5-92 41" id="S"/><path d="M24 0v-261h32V0H24" id="T"/><g id="i"><use transform="matrix(0.05,0,0,0.05,0,0)" xlink:href="#O"/><use transform="matrix(0.05,0,0,0.05,5,0)" xlink:href="#P"/><use transform="matrix(0.05,0,0,0.05,15,0)" xlink:href="#Q"/><use transform="matrix(0.05,0,0,0.05,18.95,0)" xlink:href="#R"/><use transform="matrix(0.05,0,0,0.05,23.95,0)" xlink:href="#Q"/><use transform="matrix(0.05,0,0,0.05,27.899999999999995,0)" xlink:href="#S"/><use transform="matrix(0.05,0,0,0.05,37.9,0)" xlink:href="#T"/></g><path d="M135-143c-3-34-86-38-87 0 15 53 115 12 119 90S17 21 10-45l28-5c4 36 97 45 98 0-10-56-113-15-118-90-4-57 82-63 122-42 12 7 21 19 24 35" id="U"/><g id="j"><use transform="matrix(0.05,0,0,0.05,0,0)" xlink:href="#U"/><use transform="matrix(0.05,0,0,0.05,9,0)" xlink:href="#R"/><use transform="matrix(0.05,0,0,0.05,14,0)" xlink:href="#S"/><use transform="matrix(0.05,0,0,0.05,24,0)" xlink:href="#R"/><use transform="matrix(0.05,0,0,0.05,29,0)" xlink:href="#C"/></g><g id="k"><use transform="matrix(0.05,0,0,0.05,0,0)" xlink:href="#K"/><use transform="matrix(0.05,0,0,0.05,10,0)" xlink:href="#L"/><use transform="matrix(0.05,0,0,0.05,22,0)" xlink:href="#M"/><use transform="matrix(0.05,0,0,0.05,32.95,0)" xlink:href="#N"/></g><g id="n"><use transform="matrix(0.05,0,0,0.05,0,0)" xlink:href="#M"/><use transform="matrix(0.05,0,0,0.05,10.950000000000001,0)" xlink:href="#H"/><use transform="matrix(0.05,0,0,0.05,23.900000000000002,0)" xlink:href="#I"/><use transform="matrix(0.05,0,0,0.05,36.85,0)" xlink:href="#I"/></g><path d="M232-93c-1 65-40 97-104 97C67 4 28-28 28-90v-158h33c8 89-33 224 67 224 102 0 64-133 71-224h33v155" id="V"/><g id="o"><use transform="matrix(0.05,0,0,0.05,0,0)" xlink:href="#V"/><use transform="matrix(0.05,0,0,0.05,12.950000000000001,0)" xlink:href="#U"/><use transform="matrix(0.05,0,0,0.05,21.950000000000003,0)" xlink:href="#C"/></g><g id="p"><use transform="matrix(0.05,0,0,0.05,0,0)" xlink:href="#Q"/><use transform="matrix(0.05,0,0,0.05,3.95,0)" xlink:href="#P"/><use transform="matrix(0.05,0,0,0.05,13.949999999999998,0)" xlink:href="#Q"/><use transform="matrix(0.05,0,0,0.05,17.9,0)" xlink:href="#R"/><use transform="matrix(0.05,0,0,0.05,22.9,0)" xlink:href="#Q"/><use transform="matrix(0.05,0,0,0.05,26.849999999999994,0)" xlink:href="#S"/><use transform="matrix(0.05,0,0,0.05,36.849999999999994,0)" xlink:href="#T"/></g><g id="q"><use transform="matrix(0.05,0,0,0.05,0,0)" xlink:href="#U"/><use transform="matrix(0.05,0,0,0.05,9,0)" xlink:href="#R"/><use transform="matrix(0.05,0,0,0.05,14,0)" xlink:href="#S"/><use transform="matrix(0.05,0,0,0.05,24,0)" xlink:href="#R"/><use transform="matrix(0.05,0,0,0.05,29,0)" xlink:href="#C"/></g><g id="r"><use transform="matrix(0.05,0,0,0.05,0,0)" xlink:href="#S"/><use transform="matrix(0.05,0,0,0.05,10,0)" xlink:href="#U"/></g><path d="M114-163C36-179 61-72 57 0H25l-1-190h30c1 12-1 29 2 39 6-27 23-49 58-41v29" id="W"/><g id="s"><use transform="matrix(0.05,0,0,0.05,0,0)" xlink:href="#B"/><use transform="matrix(0.05,0,0,0.05,5,0)" xlink:href="#Q"/><use transform="matrix(0.05,0,0,0.05,8.95,0)" xlink:href="#W"/><use transform="matrix(0.05,0,0,0.05,14.899999999999999,0)" xlink:href="#U"/><use transform="matrix(0.05,0,0,0.05,23.9,0)" xlink:href="#R"/></g><path d="M63-220v92h138v28H63V0H30v-248h175v28H63" id="X"/><path d="M210-169c-67 3-38 105-44 169h-31v-121c0-29-5-50-35-48C34-165 62-65 56 0H25l-1-190h30c1 10-1 24 2 32 10-44 99-50 107 0 11-21 27-35 58-36 85-2 47 119 55 194h-31v-121c0-29-5-49-35-48" id="Y"/><g id="t"><use transform="matrix(0.05,0,0,0.05,0,0)" xlink:href="#X"/><use transform="matrix(0.05,0,0,0.05,10.950000000000001,0)" xlink:href="#W"/><use transform="matrix(0.05,0,0,0.05,16.900000000000002,0)" xlink:href="#S"/><use transform="matrix(0.05,0,0,0.05,26.900000000000002,0)" xlink:href="#Y"/><use transform="matrix(0.05,0,0,0.05,41.85,0)" xlink:href="#C"/></g><g id="u"><use transform="matrix(0.05,0,0,0.05,0,0)" xlink:href="#R"/><use transform="matrix(0.05,0,0,0.05,5,0)" xlink:href="#D"/></g><path d="M16-82v-28h88v28H16" id="Z"/><use transform="matrix(0.05,0,0,0.05,0,0)" xlink:href="#Z" id="v"/><path d="M126-127c33 6 58 20 58 59 0 88-139 92-164 29-3-8-5-16-6-25l32-3c6 27 21 44 54 44 32 0 52-15 52-46 0-38-36-46-79-43v-28c39 1 72-4 72-42 0-27-17-43-46-43-28 0-47 15-49 41l-32-3c6-42 35-63 81-64 48-1 79 21 79 65 0 36-21 52-52 59" id="aa"/><g id="w"><use transform="matrix(0.05,0,0,0.05,0,0)" xlink:href="#R"/><use transform="matrix(0.05,0,0,0.05,5,0)" xlink:href="#aa"/></g><g id="x"><use transform="matrix(0.05,0,0,0.05,0,0)" xlink:href="#R"/><use transform="matrix(0.05,0,0,0.05,5,0)" xlink:href="#G"/></g><path d="M64 0c3-98 48-159 88-221H18v-27h164v26C143-157 98-101 97 0H64" id="ab"/><g id="y"><use transform="matrix(0.05,0,0,0.05,0,0)" xlink:href="#R"/><use transform="matrix(0.05,0,0,0.05,5,0)" xlink:href="#ab"/></g><g id="z"><use transform="matrix(0.05,0,0,0.05,0,0)" xlink:href="#X"/><use transform="matrix(0.05,0,0,0.05,10.950000000000001,0)" xlink:href="#X"/></g><path d="M206 0h-36l-40-164L89 0H53L-1-190h32L70-26l43-164h34l41 164 42-164h31" id="ac"/><path d="M100-194c62-1 85 37 85 99 1 63-27 99-86 99S16-35 15-95c0-66 28-99 85-99zM99-20c44 1 53-31 53-75 0-43-8-75-51-75s-53 32-53 75 10 74 51 75" id="ad"/><path d="M143 0L79-87 56-68V0H24v-261h32v163l83-92h37l-77 82L181 0h-38" id="ae"/><g id="A"><use transform="matrix(0.05,0,0,0.05,0,0)" xlink:href="#I"/><use transform="matrix(0.05,0,0,0.05,12.950000000000001,0)" xlink:href="#C"/><use transform="matrix(0.05,0,0,0.05,22.950000000000003,0)" xlink:href="#R"/><use transform="matrix(0.05,0,0,0.05,27.950000000000003,0)" xlink:href="#ac"/><use transform="matrix(0.05,0,0,0.05,40.900000000000006,0)" xlink:href="#ad"/><use transform="matrix(0.05,0,0,0.05,50.900000000000006,0)" xlink:href="#W"/><use transform="matrix(0.05,0,0,0.05,56.85,0)" xlink:href="#ae"/></g></defs></g></svg>