<svg xmlns="http://www.w3.org/2000/svg" xmlns:xlink="http://www.w3.org/1999/xlink" xmlns:lucid="lucid" width="960" height="1300"><g transform="translate(-160 -80)" lucid:page-tab-id="0_0"><path d="M180 100h150v525H180z" stroke="#000" stroke-width="2" fill="#fff"/><use xlink:href="#a" transform="matrix(1,0,0,1,185,105) translate(55 261.09999999999997)"/><path d="M210 145h100v100H210z" stroke="#000" stroke-width="2" fill="#fff"/><path d="M250 185h20v20h-20zM210 265h100v100H210z" stroke="#000" stroke-width="2" fill="#fff"/><path d="M270 325h20v20h-20zM210 385h100v100H210z" stroke="#000" stroke-width="2" fill="#fff"/><path d="M290 465h20v20h-20zM210 505h100v100H210z" stroke="#000" stroke-width="2" fill="#fff"/><path d="M270 565h20v20h-20z" stroke="#000" stroke-width="2" fill="#fff"/><path d="M331 362.5l64.77 1.25M331 362.5l-3-.06" stroke="#000" stroke-width="2" fill="none"/><path d="M410.76 364.04l-14.35 4.36.2-9.27z" stroke="#000" stroke-width="2"/><path d="M415 114.1l130 160v160l-130 180z" stroke="#000" stroke-width="2" fill="#fff"/><use xlink:href="#b" transform="matrix(1,0,0,1,414.99922750772487,114.09999999999991) translate(45.575 253.6)"/><path d="M546 364.1l8.37.17 7.46.47 6.7.7 6.08.9 5.55 1.05 5.1 1.2 4.7 1.3 4.37 1.42 4.08 1.5 3.83 1.63 3.62 1.7 3.42 1.78 3.25 1.88 3.1 2 3 2.06 2.85 2.17 2.76 2.28 2.68 2.42 2.6 2.54 2.53 2.7 2.46 2.85 2.4 3.05 2.37 3.26 2.32 3.5 2.28 3.78 2.25 4.1 2.22 4.5 2.2 4.92 2.16 5.47 2.15 6.14 2.1 6.96 2.04 8 1.97 9.33 1.88 11.18 1.74 13.86 1.5 18.16 1.07 26.64.55 186.6 2.12 25.58 2.6 20.73 2.97 17.58 3.26 15.32 3.5 13.6 3.68 12.26 3.9 11.17 4.04 10.25 4.23 9.5 4.4 8.85 4.56 8.3 4.73 7.82 2.18 3.28M546 364.1l-3-.12" stroke="#000" stroke-width="2" fill="none"/><path d="M722.65 894.64l-12.1-8.86 7.52-5.42z" stroke="#000" stroke-width="2"/><path d="M195 100h120v53.2H195z" stroke="#000" stroke-opacity="0" stroke-width="2" fill="#fff" fill-opacity="0"/><use xlink:href="#c" transform="matrix(1,0,0,1,199.99961375386255,105.00000000000003) translate(4.100000000000001 25.6)"/><use xlink:href="#d" transform="matrix(1,0,0,1,199.99961375386255,105.00000000000003) translate(60.95 25.6)"/><use xlink:href="#e" transform="matrix(1,0,0,1,199.99961375386255,105.00000000000003) translate(80.94999999999999 25.6)"/><use xlink:href="#f" transform="matrix(1,0,0,1,199.99961375386255,105.00000000000003) translate(91.9 25.6)"/><path d="M180 680h150v525H180z" stroke="#000" stroke-width="2" fill="#fff"/><use xlink:href="#a" transform="matrix(1,0,0,1,185,685) translate(55 261.09999999999997)"/><path d="M210 725h100v100H210z" stroke="#000" stroke-width="2" fill="#fff"/><path d="M270 740h20v20h-20zM210 845h100v100H210z" stroke="#000" stroke-width="2" fill="#fff"/><path d="M270 865h20v20h-20zM210 965h100v100H210z" stroke="#000" stroke-width="2" fill="#fff"/><path d="M270 980h20v20h-20zM210 1085h100v100H210z" stroke="#000" stroke-width="2" fill="#fff"/><path d="M270 1100h20v20h-20z" stroke="#000" stroke-width="2" fill="#fff"/><path d="M331 942.5l64.77 1.25M331 942.5l-3-.06" stroke="#000" stroke-width="2" fill="none"/><path d="M410.76 944.04l-14.35 4.36.2-9.27z" stroke="#000" stroke-width="2"/><path d="M415 694.1l130 160v160l-130 180z" stroke="#000" stroke-width="2" fill="#fff"/><use xlink:href="#b" transform="matrix(1,0,0,1,414.99922750772487,694.0999999999999) translate(45.575 253.6)"/><path d="M546 944.1h134.95M546 944.1h-3" stroke="#000" stroke-width="2" fill="none"/><path d="M695.95 944.1l-14.27 4.64v-9.28z" stroke="#000" stroke-width="2"/><path d="M182.5 680h145v53.2h-145z" stroke="#000" stroke-opacity="0" stroke-width="2" fill="#fff" fill-opacity="0"/><use xlink:href="#g" transform="matrix(1,0,0,1,187.4998068769314,685) translate(10.125 25.6)"/><use xlink:href="#h" transform="matrix(1,0,0,1,187.4998068769314,685) translate(65.025 25.6)"/><path d="M180 1280h40v80h-40z" stroke="#000" stroke-width="2" fill="#fff"/><path d="M180 1280h40v40h-40z" stroke="#000" stroke-width="2" fill="#fff"/><use xlink:href="#i" transform="matrix(1,0,0,1,185,1285) translate(-2.4750000000000014 18.6)"/><path d="M180 1320h40v40h-40z" stroke="#000" stroke-width="2" fill="#fff"/><use xlink:href="#j" transform="matrix(1,0,0,1,185,1325) translate(-2.4750000000000014 18.6)"/><path d="M221 1320l25.72-.53 23.65-1.48 21.97-2.32 20.6-3.03 19.47-3.72 18.57-4.35 17.84-4.98 17.28-5.6 16.86-6.28 16.6-6.97L436 1273l16.48-8.62 16.65-9.62 17.03-10.8 17.6-12.26 18.52-14.06 19.83-16.42 21.83-19.66 24.97-24.5 30.6-32.64 43.96-51.14 48.12-60.05M221 1320l-3 .06" stroke="#000" stroke-width="2" fill="none"/><path d="M720.96 1001.53l-5.3 14.03-7.24-5.8z" stroke="#000" stroke-width="2"/><path d="M827.5 948.75c0 35.2-28.54 63.75-63.75 63.75-35.2 0-63.75-28.54-63.75-63.75 0-35.2 28.54-63.75 63.75-63.75 35.2 0 63.75 28.54 63.75 63.75z" stroke="#000" stroke-width="2" fill="#fff"/><use xlink:href="#k" transform="matrix(1,0,0,1,705,890) translate(8.654320987654309 62.55555555555555)"/><path d="M912.8 794.38h44.8v308.75h-44.8zM1060 908.75h40v80h-40z" stroke="#000" stroke-width="2" fill="#fff"/><path d="M1060 908.75h40v40h-40z" stroke="#000" stroke-width="2" fill="#fff"/><use xlink:href="#i" transform="matrix(1,0,0,1,1065,913.75) translate(-2.4750000000000014 18.6)"/><path d="M1060 948.75h40v40h-40z" stroke="#000" stroke-width="2" fill="#fff"/><use xlink:href="#j" transform="matrix(1,0,0,1,1065,953.75) translate(-2.4750000000000014 18.6)"/><path d="M828.5 948.75h65.06M828.5 948.75h-3" stroke="#000" stroke-width="2" fill="none"/><path d="M908.56 948.75l-14.26 4.64v-9.3z" stroke="#000" stroke-width="2"/><path d="M958.6 948.75h82.16M958.6 948.75h-3" stroke="#000" stroke-width="2" fill="none"/><path d="M1055.76 948.75l-14.26 4.64v-9.3z" stroke="#000" stroke-width="2"/><defs><path d="M101-234c-31-9-42 10-38 44h38v23H63V0H32v-167H5v-23h27c-7-52 17-82 69-68v24" id="l"/><path d="M100-194c63 0 86 42 84 106H49c0 40 14 67 53 68 26 1 43-12 49-29l28 8c-11 28-37 45-77 45C44 4 14-33 15-96c1-61 26-98 85-98zm52 81c6-60-76-77-97-28-3 7-6 17-6 28h103" id="m"/><g id="a"><use transform="matrix(0.05,0,0,0.05,0,0)" xlink:href="#l"/><use transform="matrix(0.05,0,0,0.05,5,0)" xlink:href="#m"/><use transform="matrix(0.05,0,0,0.05,15,0)" xlink:href="#l"/><use transform="matrix(0.05,0,0,0.05,20,0)" xlink:href="#m"/></g><path d="M212-179c-10-28-35-45-73-45-59 0-87 40-87 99 0 60 29 101 89 101 43 0 62-24 78-52l27 14C228-24 195 4 139 4 59 4 22-46 18-125c-6-104 99-153 187-111 19 9 31 26 39 46" id="n"/><path d="M190 0L58-211 59 0H30v-248h39L202-35l-2-213h31V0h-41" id="o"/><g id="b"><use transform="matrix(0.05,0,0,0.05,0,0)" xlink:href="#n"/><use transform="matrix(0.05,0,0,0.05,12.950000000000001,0)" xlink:href="#o"/><use transform="matrix(0.05,0,0,0.05,25.900000000000002,0)" xlink:href="#o"/></g><path d="M63-220v92h138v28H63V0H30v-248h175v28H63" id="p"/><path d="M114-163C36-179 61-72 57 0H25l-1-190h30c1 12-1 29 2 39 6-27 23-49 58-41v29" id="q"/><path d="M141-36C126-15 110 5 73 4 37 3 15-17 15-53c-1-64 63-63 125-63 3-35-9-54-41-54-24 1-41 7-42 31l-33-3c5-37 33-52 76-52 45 0 72 20 72 64v82c-1 20 7 32 28 27v20c-31 9-61-2-59-35zM48-53c0 20 12 33 32 33 41-3 63-29 60-74-43 2-92-5-92 41" id="r"/><path d="M210-169c-67 3-38 105-44 169h-31v-121c0-29-5-50-35-48C34-165 62-65 56 0H25l-1-190h30c1 10-1 24 2 32 10-44 99-50 107 0 11-21 27-35 58-36 85-2 47 119 55 194h-31v-121c0-29-5-49-35-48" id="s"/><g id="c"><use transform="matrix(0.05,0,0,0.05,0,0)" xlink:href="#p"/><use transform="matrix(0.05,0,0,0.05,10.950000000000001,0)" xlink:href="#q"/><use transform="matrix(0.05,0,0,0.05,16.900000000000002,0)" xlink:href="#r"/><use transform="matrix(0.05,0,0,0.05,26.900000000000002,0)" xlink:href="#s"/><use transform="matrix(0.05,0,0,0.05,41.85,0)" xlink:href="#m"/></g><path d="M59-47c-2 24 18 29 38 22v24C64 9 27 4 27-40v-127H5v-23h24l9-43h21v43h35v23H59v120" id="t"/><path d="M101-251c68 0 85 55 85 127S166 4 100 4C33 4 14-52 14-124c0-73 17-127 87-127zm-1 229c47 0 54-49 54-102s-4-102-53-102c-51 0-55 48-55 102 0 53 5 102 54 102" id="u"/><g id="d"><use transform="matrix(0.05,0,0,0.05,0,0)" xlink:href="#t"/><use transform="matrix(0.05,0,0,0.05,5,0)" xlink:href="#u"/></g><path d="M16-82v-28h88v28H16" id="v"/><use transform="matrix(0.05,0,0,0.05,0,0)" xlink:href="#v" id="e"/><path d="M126-127c33 6 58 20 58 59 0 88-139 92-164 29-3-8-5-16-6-25l32-3c6 27 21 44 54 44 32 0 52-15 52-46 0-38-36-46-79-43v-28c39 1 72-4 72-42 0-27-17-43-46-43-28 0-47 15-49 41l-32-3c6-42 35-63 81-64 48-1 79 21 79 65 0 36-21 52-52 59" id="w"/><g id="f"><use transform="matrix(0.05,0,0,0.05,0,0)" xlink:href="#t"/><use transform="matrix(0.05,0,0,0.05,5,0)" xlink:href="#w"/></g><path d="M127-220V0H93v-220H8v-28h204v28h-85" id="x"/><path d="M177-190C167-65 218 103 67 71c-23-6-38-20-44-43l32-5c15 47 100 32 89-28v-30C133-14 115 1 83 1 29 1 15-40 15-95c0-56 16-97 71-98 29-1 48 16 59 35 1-10 0-23 2-32h30zM94-22c36 0 50-32 50-73 0-42-14-75-50-75-39 0-46 34-46 75s6 73 46 73" id="y"/><g id="g"><use transform="matrix(0.05,0,0,0.05,0,0)" xlink:href="#x"/><use transform="matrix(0.05,0,0,0.05,8.950000000000001,0)" xlink:href="#r"/><use transform="matrix(0.05,0,0,0.05,18.950000000000003,0)" xlink:href="#q"/><use transform="matrix(0.05,0,0,0.05,24.900000000000002,0)" xlink:href="#y"/><use transform="matrix(0.05,0,0,0.05,34.900000000000006,0)" xlink:href="#m"/><use transform="matrix(0.05,0,0,0.05,44.900000000000006,0)" xlink:href="#t"/></g><path d="M135-143c-3-34-86-38-87 0 15 53 115 12 119 90S17 21 10-45l28-5c4 36 97 45 98 0-10-56-113-15-118-90-4-57 82-63 122-42 12 7 21 19 24 35" id="z"/><g id="h"><use transform="matrix(0.05,0,0,0.05,0,0)" xlink:href="#p"/><use transform="matrix(0.05,0,0,0.05,10.950000000000001,0)" xlink:href="#q"/><use transform="matrix(0.05,0,0,0.05,16.900000000000002,0)" xlink:href="#r"/><use transform="matrix(0.05,0,0,0.05,26.900000000000002,0)" xlink:href="#s"/><use transform="matrix(0.05,0,0,0.05,41.85,0)" xlink:href="#m"/><use transform="matrix(0.05,0,0,0.05,51.85,0)" xlink:href="#z"/></g><path d="M141 0L90-78 38 0H4l68-98-65-92h35l48 74 47-74h35l-64 92 68 98h-35" id="A"/><g id="i"><use transform="matrix(0.05,0,0,0.05,0,0)" xlink:href="#p"/><use transform="matrix(0.05,0,0,0.05,10.950000000000001,0)" xlink:href="#t"/><use transform="matrix(0.05,0,0,0.05,15.950000000000001,0)" xlink:href="#u"/><use transform="matrix(0.05,0,0,0.05,25.950000000000003,0)" xlink:href="#A"/></g><path d="M179-190L93 31C79 59 56 82 12 73V49c39 6 53-20 64-50L1-190h34L92-34l54-156h33" id="B"/><g id="j"><use transform="matrix(0.05,0,0,0.05,0,0)" xlink:href="#p"/><use transform="matrix(0.05,0,0,0.05,10.950000000000001,0)" xlink:href="#t"/><use transform="matrix(0.05,0,0,0.05,15.950000000000001,0)" xlink:href="#u"/><use transform="matrix(0.05,0,0,0.05,25.950000000000003,0)" xlink:href="#B"/></g><path d="M100-194c62-1 85 37 85 99 1 63-27 99-86 99S16-35 15-95c0-66 28-99 85-99zM99-20c44 1 53-31 53-75 0-43-8-75-51-75s-53 32-53 75 10 74 51 75" id="C"/><path d="M117-194c89-4 53 116 60 194h-32v-121c0-31-8-49-39-48C34-167 62-67 57 0H25l-1-190h30c1 10-1 24 2 32 11-22 29-35 61-36" id="D"/><path d="M96-169c-40 0-48 33-48 73s9 75 48 75c24 0 41-14 43-38l32 2c-6 37-31 61-74 61-59 0-76-41-82-99-10-93 101-131 147-64 4 7 5 14 7 22l-32 3c-4-21-16-35-41-35" id="E"/><g id="k"><use transform="matrix(0.04938271604938272,0,0,0.04938271604938272,0,0)" xlink:href="#n"/><use transform="matrix(0.04938271604938272,0,0,0.04938271604938272,12.790123456790125,0)" xlink:href="#C"/><use transform="matrix(0.04938271604938272,0,0,0.04938271604938272,22.66666666666667,0)" xlink:href="#D"/><use transform="matrix(0.04938271604938272,0,0,0.04938271604938272,32.543209876543216,0)" xlink:href="#E"/><use transform="matrix(0.04938271604938272,0,0,0.04938271604938272,41.4320987654321,0)" xlink:href="#r"/><use transform="matrix(0.04938271604938272,0,0,0.04938271604938272,51.308641975308646,0)" xlink:href="#t"/><use transform="matrix(0.04938271604938272,0,0,0.04938271604938272,56.24691358024692,0)" xlink:href="#C"/><use transform="matrix(0.04938271604938272,0,0,0.04938271604938272,66.12345679012347,0)" xlink:href="#D"/><use transform="matrix(0.04938271604938272,0,0,0.04938271604938272,76.00000000000001,0)" xlink:href="#r"/><use transform="matrix(0.04938271604938272,0,0,0.04938271604938272,85.87654320987656,0)" xlink:href="#t"/><use transform="matrix(0.04938271604938272,0,0,0.04938271604938272,90.81481481481484,0)" xlink:href="#m"/></g></defs></g></svg>